<svg id="Layer_1" data-name="Layer 1" xmlns="http://www.w3.org/2000/svg" viewBox="0 0 51.83 65.46">
  <title>head</title>
  <path class="loader-path" d="M58,41.81c0-7.57.31-16-2.44-23.21a19.1,19.1,0,0,0-4.44-6.87A21.07,21.07,0,0,0,40.79,6.48C36.71,5.45,27.5,3.11,19,8.07,9.83,13.41,7.64,23.65,6.91,27,2.8,46.19,17,62.52,17.54,62.27S7.26,47.12,10.52,29c.72-4,2.3-12.8,9.64-17.31,6.48-4,13.9-2.46,18.36-1.53,3,.62,7.46,1.59,10.69,5.38a14.14,14.14,0,0,1,2.34,3.83C53.9,25,53.85,31.55,54,37.56c.07,3.86,0,7.73-.09,11.59l-.09,3.09-.05.5c-1.86-.34-4.19.06-6.06.07a2,2,0,0,0-2,2c.12,3.6.25,7.2.37,10.8l0,.84-.16,0a8.48,8.48,0,0,0-2.14-.12,43.18,43.18,0,0,1-5.11-.77,29.51,29.51,0,0,1-13.56-8.37c-8-8.78-7.82-20.07-8.5-20s-2,10.78,4.13,20c0,0,4.5,10.16,19,12.58a46.16,46.16,0,0,0,6.21.62c1.62,0,3.27-.17,3.94-1.85.74-1.85.14-4.53.07-6.48l-.18-5.33c1.51,0,3,0,4.54,0s2.9-.46,3.34-2.06c.5-1.81.21-4.09.26-6Q58,45.3,58,41.81Z" transform="translate(-6.17 -5.02)"/>
  <g>
    <circle class="loader-circle" cx="16.22" cy="19.17" r="2.45"/>
    <circle class="loader-circle" cx="30.46" cy="27.24" r="2.45"/>
    <circle class="loader-circle" cx="29.62" cy="12.73" r="2.45"/>
    <circle class="loader-circle" cx="21.37" cy="34.55" r="2.45"/>
    <line class="loader-line" x1="21.37" y1="34.55" x2="16.22" y2="19.17"/>
    <line class="loader-line" x1="30.46" y1="27.24" x2="21.37" y2="34.55"/>
    <line class="loader-line" x1="16.22" y1="19.17" x2="30.46" y2="27.24"/>
    <line class="loader-line" x1="29.62" y1="12.73" x2="16.22" y2="19.17"/>
  </g>
</svg>
