<svg id="Layer_1" data-name="Layer 1" xmlns="http://www.w3.org/2000/svg" viewBox="0 0 224.64 82.53">
  <defs>
    <style>
      .cls-1 {
        fill: #fff;
      }
    </style>
  </defs>
  <title>logo just text</title>
  <g>
    <path class="cls-1" d="M27.5,26.73V48.5H22.2L13.33,35.07V48.5H8V26.73h5.3L22.2,40.22V26.73Z"/>
    <path class="cls-1" d="M44.67,31h-8v4.4h7.1v4.1h-7.1v4.77h8V48.5H31.34V26.73H44.67Z"/>
    <path class="cls-1" d="M57,41.83,53.1,48.5h-6l7-11.07-7.13-10.7H53.1l4.37,6.58,3.85-6.58h6l-6.91,11L67.61,48.5H61.44Z"/>
    <path class="cls-1" d="M83.82,44.65H75.7L74.4,48.5H68.85l7.87-21.77h6.14L90.74,48.5H85.12ZM79.76,32.59l-2.67,8h5.37Z"/>
    <path class="cls-1" d="M113.24,39.54H105v9h-5.3V26.73H105v8.53h8.25V26.73h5.3V48.5h-5.3Z"/>
    <path class="cls-1" d="M135.69,31h-8v4.4h7.1v4.1h-7.1v4.77h8V48.5H122.35V26.73h13.34Z"/>
    <path class="cls-1" d="M152.67,44.65h-8.12l-1.3,3.85H137.7l7.87-21.77h6.14l7.88,21.77H154Zm-4.06-12.06-2.67,8h5.37Z"/>
    <path class="cls-1" d="M167.27,26.73V44.41h6.95V48.5H162V26.73Z"/>
    <path class="cls-1" d="M175.58,26.73h16.83V31h-5.76V48.5h-5.3V31h-5.77Z"/>
    <path class="cls-1" d="M208.63,39.54h-8.25v9h-5.3V26.73h5.3v8.53h8.25V26.73h5.3V48.5h-5.3Z"/>
  </g>
  <path class="cls-1" d="M194.81,54.24H214v5.09H194.81Z"/>
</svg>
