<svg id="Layer_1" data-name="Layer 1" xmlns="http://www.w3.org/2000/svg" viewBox="0 0 298.59 84.32">
  <defs>
    <style>
      .cls-1, .cls-3 {
        fill: #fff;
      }

      .cls-2 {
        fill: none;
        stroke: #fff;
        stroke-miterlimit: 10;
        stroke-width: 1.75px;
      }

      .cls-3 {
        font-size: 31px;
        font-family: Poppins-Bold, Poppins;
        font-weight: 700;
      }
    </style>
  </defs>
  <title>logo-final-1</title>
  <path class="cls-1" d="M293.56,45.73c0-8.26.34-17.46-2.66-25.3a20.93,20.93,0,0,0-4.84-7.5,23.05,23.05,0,0,0-11.24-5.72c-4.45-1.13-14.49-3.67-23.76,1.73-10,5.83-12.39,17-13.17,20.65-4.49,20.92,11,38.72,11.58,38.44s-11.21-16.51-7.66-36.29c.79-4.37,2.51-13.95,10.52-18.87,7.06-4.35,15.15-2.68,20-1.67,3.28.67,8.13,1.74,11.66,5.86a15.49,15.49,0,0,1,2.55,4.18c2.56,6.16,2.51,13.3,2.62,19.85.07,4.22,0,8.43-.1,12.64,0,1.12-.07,2.25-.1,3.37,0,.12,0,.33-.06.55-2-.37-4.56.06-6.6.07a2.21,2.21,0,0,0-2.18,2.19q.19,5.88.4,11.76l0,.92-.17,0a9.52,9.52,0,0,0-2.33-.13,46.71,46.71,0,0,1-5.57-.84,32.15,32.15,0,0,1-14.79-9.12C249,53,249.17,40.64,248.44,40.77s-2.15,11.75,4.49,21.81c0,0,4.91,11.09,20.68,13.72a51.56,51.56,0,0,0,6.78.68c1.76,0,3.56-.19,4.29-2,.81-2,.16-4.93.08-7.06-.06-1.94-.13-3.87-.2-5.81,1.65,0,3.31,0,4.95,0s3.17-.51,3.65-2.25c.54-2,.23-4.45.28-6.48C293.5,50.78,293.55,48.25,293.56,45.73Z"/>
  <g>
    <circle class="cls-1" cx="254.75" cy="26.51" r="2.67"/>
    <circle class="cls-1" cx="270.28" cy="35.32" r="2.67"/>
    <circle class="cls-1" cx="269.37" cy="19.5" r="2.67"/>
    <circle class="cls-1" cx="260.37" cy="43.29" r="2.67"/>
    <line class="cls-2" x1="260.37" y1="43.29" x2="254.75" y2="26.51"/>
    <line class="cls-2" x1="270.28" y1="35.32" x2="260.37" y2="43.29"/>
    <line class="cls-2" x1="254.75" y1="26.51" x2="270.28" y2="35.32"/>
    <line class="cls-2" x1="269.37" y1="19.5" x2="254.75" y2="26.51"/>
  </g>
  <text class="cls-3" transform="translate(7.2 59.78)">NEXA HEALTH</text>
  <text class="cls-3" transform="translate(193.27 64.25)">_</text>
</svg>
